<?xml version="1.0" encoding="UTF-8"?>
<svg id="Camada_1" data-name="Camada 1" xmlns="http://www.w3.org/2000/svg" viewBox="0 0 100 100">
  <defs>
    <style>
      .cls-1 {
        fill: #010101;
      }

      .cls-1, .cls-2 {
        stroke-width: 0px;
      }

      .cls-2 {
        fill: #b5d905;
      }
    </style>
  </defs>
  <circle class="cls-1" cx="50" cy="50" r="50"/>
  <path class="cls-2" d="M24,61.2l-10.7-9.3,11.1-10.5.1-.2c.3-.6.3-1.3,0-1.9l-.1-.2-1.3-1.4-.2-.1c-.6-.3-1.1-.3-1.5-.2h-.3l-13.7,13-.1.2c-.2.3-.3.6-.3.9v1.4l.2.3c.1.1.2.4.5.7l13.1,11.4.3.2c.3.2.6.3.9.3.8,0,1.3-.4,1.6-.9l1-1,.1-.2c.2-.3.2-.6.2-.9-.1-.7-.4-1.3-.9-1.6Z"/>
  <path class="cls-2" d="M92.8,49.7c-.1-.1-.2-.4-.5-.7l-13-11.3-.3-.2c-.3-.2-.6-.2-.9-.2-.7,0-1.2.4-1.4.7l-1.1,1.2-.1.2c-.2.3-.3.6-.3.9,0,.8.4,1.2.8,1.5l10.7,9.3-10.9,10.3c-.8.8-.8,1.9,0,2.6l1.2,1.3.2.1c.3.2.6.3.9.3.2,0,.9-.1,1.3-.5l13.2-12.5.1-.2c.2-.3.2-.6.2-.9v-1.4l-.1-.5Z"/>
  <path class="cls-2" d="M46.6,49.3c-2.1-2.4-3.7-4.7-4.9-6.8s-1.8-4.2-1.7-6.2c0-1.9.8-3.7,2.4-5.5l.6-.6c1.1-.9,2.6-1.7,4.5-2.2,1.8-.6,3.8-.7,5.9-.2,1.9.4,3.7,1.5,5.1,3.1.3.4.7.8,1,1.1l.8,1.1,1-.7c.1-.1.2-.1.3-.2,0,0,.1,0,.1-.1l.1-.1.5-.6v-.4c0-.2,0-.8-1.3-2.2-1-1.1-2.2-2-3.5-2.7-1.4-.8-3-1.4-5.2-1.7h-1.7c-4.1,0-7.6,1.2-10.3,3.6l-.5.5c-3.9,3.9-5.8,7.8-5.6,11.5.1,3.5,1.1,6.7,2.9,9.4,1.6,2.3,3,4.2,4.1,5.4l20.6,23.6.4.7,8.6-1.3-24.2-28.5Z"/>
  <path class="cls-2" d="M39.3,27.9l.5-.5c.6-.6,1.3-1.1,2-1.5l-4.2-4.7-8.5,1.2,7.4,8.7c.8-1.1,1.8-2.2,2.8-3.2Z"/>
  <path class="cls-2" d="M58.8,45.5l-13.7-15.7c-.6.3-1.2.7-1.6,1l-.5.5c-1.4,1.5-2.1,3-2.2,4.6l12.7,14.7c2.1,2.4,3.7,4.7,4.9,6.8s1.8,4.2,1.7,6.3v.1l3.4,3.9c1.7-2.6,2.5-5.1,2.4-7.5-.1-3.5-1.1-6.6-2.9-9.4-2-2.7-3.2-4.3-4.2-5.3Z"/>
  <path class="cls-2" d="M54.2,70.6l-.2.1c-1,.6-2.3,1.1-3.4,1.4-1.8.5-3.8.6-5.9.2-2-.4-3.9-1.6-5.4-3.4l-1.2-1.5-3.3.7,1,1.7c.3.5.7,1,1.1,1.5.9,1,2.1,2,3.5,2.8s3,1.4,5.2,1.7h1.7c3.1,0,6-.8,8.4-2.2l.8-.4-2.3-2.6Z"/>
</svg>